# AST/ASF file generated using VICON BodyLanguage
# -----------------------------------------------
:version 1.10
:name VICON
:units
  mass 1.0
  length 0.45
  angle deg
:documentation
   .ast/.asf automatically generated from VICON data using
   VICON BodyBuilder and BodyLanguage model FoxedUp or BRILLIANT.MOD
:root
   order TX TY TZ RX RY RZ
   axis XYZ
   position 0 0 0  
   orientation 0 0 0 
:bonedata
  begin
     id 1 
     name lhipjoint
     direction 0.567149 -0.783011 0.255413 
     length 2.28399 
     axis 0 0 0  XYZ
  end
  begin
     id 2 
     name lfemur
     direction 0.34202 -0.939693 0  
     length 7.34031  
     axis 0 0 20  XYZ
    dof rx ry rz
    limits (-160.0 20.0)
           (-70.0 70.0)
           (-60.0 70.0)
  end
  begin
     id 3 
     name ltibia
     direction 0.34202 -0.939693 0   
     length 6.9833   
     axis 0 0 20   XYZ
    dof rx
    limits (-10.0 170.0)
  end
  begin
     id 4 
     name lfoot
     direction 0.136498 -0.375025 0.91691   
     length 2.33665   
     axis -90 7.62852e-016 20   XYZ
    dof rx rz
    limits (-45.0 90.0)
           (-70.0 20.0)
  end
  begin
     id 5 
     name ltoes
     direction 1.5367e-011 -4.21617e-011 1   
     length 1.15039   
     axis -90 7.62852e-016 20   XYZ
    dof rx
    limits (-90.0 20.0)
  end
  begin
     id 6 
     name rhipjoint
     direction -0.602854 -0.758518 0.247423   
     length 2.35775  
     axis 0 0 0  XYZ 
  end
  begin
     id 7 
     name rfemur
     direction -0.34202 -0.939693 0   
     length 7.43932   
     axis 0 0 -20   XYZ
    dof rx ry rz
    limits (-160.0 20.0)
           (-70.0 70.0)
           (-70.0 60.0)
  end
  begin
     id 8 
     name rtibia
     direction -0.34202 -0.939693 0   
     length 7.11893   
     axis 0 0 -20   XYZ
    dof rx
    limits (-10.0 170.0)
 end
 begin
     id 9 
     name rfoot
     direction -0.131771 -0.362037 0.922803   
     length 2.53019  
     axis -90 -7.62852e-016 -20   XYZ
    dof rx rz
    limits (-45.0 90.0)
           (-20.0 70.0)
  end
  begin
     id 10 
     name rtoes
     direction -1.53733e-011 -4.21932e-011 1   
     length 1.24596   
     axis -90 -7.62852e-016 -20   XYZ
    dof rx
    limits (-90.0 20.0)
  end
  begin
     id 11 
     name lowerback
     direction 0.0235427 0.999023 -0.0374125   
     length 2.21768   
     axis 0 0 0   XYZ
    dof rx ry rz
    limits (-20.0 45.0)
           (-30.0 30.0)
           (-30.0 30.0)
  end
  begin
     id 12 
     name upperback
     direction 0.0302156 0.996818 -0.073759   
     length 2.20352   
     axis 0 0 0   XYZ
    dof rx ry rz
    limits (-20.0 45.0)
           (-30.0 30.0)
           (-30.0 30.0)
  end
  begin
     id 13 
     name thorax
     direction 0.0187169 0.998235 -0.0563532   
     length 2.22103   
     axis 0 0 0   XYZ
    dof rx ry rz
    limits (-20.0 45.0)
           (-30.0 30.0)
           (-30.0 30.0)
  end
  begin
     id 14 
     name lowerneck
     direction -0.119528 0.987423 0.103481   
     length 1.72948   
     axis 0 0 0   XYZ
    dof rx ry rz
    limits (-20.0 45.0)
           (-30.0 30.0)
           (-30.0 30.0)
  end
  begin
     id 15 
     name upperneck
     direction 0.248049 0.963095 -0.104496   
     length 1.74979   
     axis 0 0 0   XYZ
    dof rx ry rz
    limits (-20.0 45.0)
           (-30.0 30.0)
           (-30.0 30.0)
  end
  begin
     id 16
     name head
     direction 0.0903589 0.994284 -0.056876  
     length 1.78268  
     axis 0 0 0   XYZ
    dof rx ry rz
    limits (-20.0 45.0)
           (-30.0 30.0)
           (-30.0 30.0)
  end
  begin
     id 17 
     name lclavicle
     direction 0.946008 0.242039 -0.215608  
     length 3.80783  
     axis 0 0 0   XYZ
    dof ry rz
    limits (-20.0 10.0)
           (0.0 20.0)
  end
  begin
     id 18 
     name lhumerus
     direction 1 -4.48991e-011 -2.25695e-027   
     length 4.83125   
     axis 180 -30 -90   XYZ
    dof rx ry rz
    limits (-60.0 90.0)
           (-90.0 90.0)
           (-90.0 90.0)
  end
  begin
     id 19
     name lradius
     direction 0.999991 0.00366712 -0.00211721   
     length 3.00391   
     axis 180 -30 -90   XYZ
    dof rx
    limits (-10.0 170.0)
  end
  begin
     id 20
     name lwrist
     direction 0.999991 0.00393016 -0.00141978   
     length 1.50195   
     axis -1.00488e-014 90 90   XYZ
    dof ry
    limits (-180.0 0.0)
 end
  begin
     id 21 
     name lhand
     direction 1 -4.49123e-011 2.72098e-026   
     length 1.2717   
     axis -1.73687e-014 90 90   XYZ
    dof rx rz
    limits (-90.0 90.0)
           (-45.0 45.0)
  end
  begin
     id 22 
     name lfingers
     direction 1 -4.48678e-011 5.4479e-026   
     length 1.02528   
     axis -3.47372e-014 90 90   XYZ
    dof rx
    limits (0.0 90.0)
  end
  begin
     id 23
     name lthumb
     direction 0.707107 -6.34851e-011 0.707107   
     length 1.4721   
     axis -90 45 -1.62303e-014   XYZ
    dof rx rz
    limits (-45.0 45.0)
           (-45.0 45.0)
  end
  begin
     id 24 
     name rclavicle
     direction -0.981723 0.189447 -0.0181673   
     length 3.74989  
     axis 0 0 0   XYZ 
    dof ry rz
    limits (-10.0 20.0)
           (-20.0 0.0)
  end
  begin
     id 25 
     name rhumerus
     direction -1 -4.48985e-011 2.38206e-027  
     length 4.61118   
     axis 180 30 90   XYZ
    dof rx ry rz
    limits (-90.0 60.0)
           (-90.0 90.0)
           (-90.0 90.0)
  end
  begin
     id 26 
     name rradius
     direction -1 -4.48977e-011 7.41019e-027   
     length 2.91491   
     axis 180 30 90   XYZ
    dof rx
    limits (-10.0 170.0)
  end
  begin
     id 27 
     name rwrist
     direction -1 -4.48549e-011 1.3624e-026   
     length 1.45745   
     axis -1.00488e-014 -90 -90   XYZ
    dof ry
    limits (-180.0 0.0)
  end
  begin
     id 28
     name rhand
     direction -1 -4.49107e-011 2.72109e-026   
     length 1.30769   
     axis -1.73687e-014 -90 -90   XYZ
    dof rx rz
    limits (-90.0 90.0)
           (-45.0 45.0)
  end
  begin
     id 29
     name rfingers
     direction -1 -4.48919e-011 5.44468e-026   
     length 1.05429   
     axis -3.47372e-014 -90 -90   XYZ
    dof rx
    limits (0.0 90.0)
  end
  begin
     id 30
     name rthumb
     direction -0.707107 -6.35315e-011 0.707107   
     length 1.51376   
     axis -90 -45 1.62303e-014   XYZ
    dof rx rz
    limits (-45.0 45.0)
           (-45.0 45.0)
  end
:hierarchy
  begin
    root lhipjoint rhipjoint lowerback
    lhipjoint lfemur
    lfemur ltibia
    ltibia lfoot
    lfoot ltoes
    rhipjoint rfemur
    rfemur rtibia
    rtibia rfoot
    rfoot rtoes
    lowerback upperback
    upperback thorax
    thorax lowerneck lclavicle rclavicle
    lowerneck upperneck
    upperneck head
    lclavicle lhumerus
    lhumerus lradius
    lradius lwrist
    lwrist lhand lthumb
    lhand lfingers
    rclavicle rhumerus
    rhumerus rradius
    rradius rwrist
    rwrist rhand rthumb
    rhand rfingers
  end

#!OML:ASF X:\für Bonn\!DataBase\2005_08_11_Bastian_Final\c3d\Bastian.ASF
:FULLY-SPECIFIED
:DEGREES
16
root -24.3745 17.704 -26.4798 176.044 131.699 -549.239
lowerback 1.63201 -0.838915 -0.281437
upperback 3.98378 -1.11488 1.25955
thorax 3.20847 -0.572235 1.43986
lowerneck -5.30242 -0.318941 -7.1615
upperneck 0.981465 -0.171935 9.12687
head 1.29436 0.0442797 4.31739
rclavicle 6.17226e-014 -1.82882e-014
rhumerus -44.314 14.7435 -95.966
rradius 66.0329
rwrist -0.767214
rhand -6.69642 8.3513
rfingers 7.12502
rthumb 19.1628 -20.7246
lclavicle 6.17226e-014 -1.82882e-014
lhumerus -31.9966 12.5697 75.877
lradius 35.7923
lwrist 175.221
lhand -18.5364 5.84361
lfingers 7.12502
lthumb 7.75262 35.6815
rfemur -25.2662 -0.136632 25.2243
rtibia 49.2435
rfoot -20.9963 -3.68435
rtoes -12.6061
lfemur -2.59333 5.89874 -15.9496
ltibia 25.2184
lfoot -22.343 -3.36127
ltoes -19.0268
17
root -24.3515 17.7027 -26.4404 176.145 131.821 -549.209
lowerback 1.72416 -0.894293 -0.375333
upperback 4.01831 -1.18783 1.2607
thorax 3.19651 -0.611453 1.49396
lowerneck -5.43891 -0.195625 -7.08927
upperneck 1.00288 -0.00278688 9.05805
head 1.30972 0.131116 4.28402
rclavicle 4.90004e-014 -1.19271e-014
rhumerus -44.5169 15.024 -95.91
rradius 67.0446
rwrist -0.376594
rhand -6.68193 8.54601
rfingers 7.12502
rthumb 19.1767 -20.5286
lclavicle 4.90004e-014 -1.19271e-014
lhumerus -31.9168 11.7299 76.2512
lradius 36.513
lwrist 176.003
lhand -18.5662 6.11322
lfingers 7.12502
lthumb 7.7239 35.9521
rfemur -26.0947 0.204821 25.1669
rtibia 50.0495
rfoot -20.8469 -3.64047
rtoes -12.4184
lfemur -2.35661 5.94933 -15.9183
ltibia 24.9444
lfoot -22.4912 -3.29537
ltoes -19.0431
18
root -24.3273 17.7003 -26.3999 176.202 131.944 -549.218
lowerback 1.84162 -0.95907 -0.437085
upperback 4.04034 -1.27347 1.26343
thorax 3.1573 -0.655925 1.5322
lowerneck -5.46544 -0.0505008 -6.9606
upperneck 0.970063 0.189823 8.94531
head 1.28473 0.226527 4.22228
rclavicle -4.2043e-014 1.59028e-015
rhumerus -44.6281 15.2205 -95.8275
rradius 67.8312
rwrist 0.20363
rhand -6.70767 8.85683
rfingers 7.12502
rthumb 19.1519 -20.2202
lclavicle -4.2043e-014 1.59028e-015
lhumerus -31.9027 10.8914 76.5722
lradius 37.3088
lwrist 176.842
lhand -18.6874 6.3256
lfingers 7.12502
lthumb 7.60684 36.1688
rfemur -26.932 0.564322 25.1468
rtibia 50.8765
rfoot -20.6897 -3.63791
rtoes -12.3063
lfemur -2.08348 5.96353 -15.8682
ltibia 24.6464
lfoot -22.6634 -3.17082
ltoes -19.3024
19
root -24.302 17.6983 -26.358 176.326 132.054 -549.153
lowerback 1.93771 -1.02809 -0.577789
upperback 4.0661 -1.36539 1.2842
thorax 3.1369 -0.706371 1.63302
lowerneck -5.46458 0.100032 -6.92754
upperneck 0.921859 0.394084 8.88223
head 1.2499 0.327406 4.19752
rclavicle 1.50082e-014 -1.51076e-014
rhumerus -44.6569 15.3053 -95.6621
rradius 68.4672
rwrist 0.835024
rhand -6.75062 9.24836
rfingers 7.12502
rthumb 19.1107 -19.8327
lclavicle 1.50082e-014 -1.51076e-014
lhumerus -31.8834 10.0857 76.9367
lradius 38.1216
lwrist 177.67
lhand -18.8404 6.57756
lfingers 7.12502
lthumb 7.45925 36.4261
rfemur -27.8013 0.916666 25.0636
rtibia 51.7253
rfoot -20.5691 -3.63053
rtoes -12.0554
lfemur -1.79528 5.95788 -15.8806
ltibia 24.2896
lfoot -22.8083 -3.01277
ltoes -19.4725
20
root -24.2755 17.6956 -26.3142 176.414 132.136 -549.132
lowerback 2.0368 -1.09521 -0.676733
upperback 4.09249 -1.45455 1.2865
thorax 3.11428 -0.753823 1.69171
lowerneck -5.42383 0.240745 -6.80355
upperneck 0.8394 0.579655 8.79375
head 1.19818 0.418102 4.14379
rclavicle -2.08724e-015 -1.19271e-014
rhumerus -44.6378 15.2878 -95.5139
rradius 69.008
rwrist 1.48294
rhand -6.80026 9.74345
rfingers 7.12502
rthumb 19.0629 -19.3424
lclavicle -2.08724e-015 -1.19271e-014
lhumerus -31.8559 9.20767 77.2601
lradius 38.9454
lwrist 178.535
lhand -19.0409 6.83608
lfingers 7.12502
lthumb 7.26568 36.6913
rfemur -28.6878 1.24575 25.0161
rtibia 52.594
rfoot -20.4984 -3.64796
rtoes -11.7206
lfemur -1.46044 5.90578 -15.8582
ltibia 23.858
lfoot -22.9021 -2.89152
ltoes -19.2781
21
root -24.2471 17.6959 -26.2679 176.481 132.184 -549.081
lowerback 2.15272 -1.18064 -0.830946
upperback 4.15548 -1.56848 1.30812
thorax 3.12368 -0.815864 1.80126
lowerneck -5.37888 0.402423 -6.68148
upperneck 0.742307 0.794672 8.67159
head 1.13886 0.522724 4.07877
rclavicle -1.63997e-014 1.66979e-014
rhumerus -44.6247 15.3605 -95.3019
rradius 69.6377
rwrist 2.05094
rhand -6.83162 10.145
rfingers 7.12502
rthumb 19.0328 -18.9438
lclavicle -1.63997e-014 1.66979e-014
lhumerus -31.8118 8.38835 77.6254
lradius 39.817
lwrist 179.358
lhand -19.2484 7.09201
lfingers 7.12502
lthumb 7.06538 36.9541
rfemur -29.5674 1.59905 24.9084
rtibia 53.476
rfoot -20.4975 -3.57676
rtoes -10.762
lfemur -1.03647 5.84396 -15.8505
ltibia 23.3499
lfoot -22.9668 -2.76483
ltoes -19.2959
22
root -24.2172 17.6989 -26.2193 176.572 132.209 -549.03
lowerback 2.2715 -1.26855 -0.96412
upperback 4.19368 -1.68588 1.31769
thorax 3.10561 -0.878656 1.88716
lowerneck -5.25914 0.554922 -6.57749
upperneck 0.601299 0.99659 8.57593
head 1.05361 0.619465 4.02484
rclavicle -2.34566e-014 6.36111e-015
rhumerus -44.6323 15.4356 -95.1142
rradius 70.2292
rwrist 2.55148
rhand -6.93394 10.592
rfingers 7.12502
rthumb 18.9343 -18.5064
lclavicle -2.34566e-014 6.36111e-015
lhumerus -31.8024 7.5943 77.9711
lradius 40.6897
lwrist 180.125
lhand -19.5153 7.41254
lfingers 7.12502
lthumb 6.80774 37.2831
rfemur -30.5064 1.92851 24.7879
rtibia 54.3608
rfoot -20.57 -3.47366
rtoes -9.82319
lfemur -0.608055 5.74054 -15.8529
ltibia 22.7827
lfoot -23.0079 -2.59445
ltoes -19.2495
23
root -24.1858 17.7004 -26.1698 176.589 132.229 -549.025
lowerback 2.45888 -1.36511 -1.02983
upperback 4.23965 -1.8148 1.33336
thorax 3.05611 -0.944912 1.9434
lowerneck -5.15289 0.715367 -6.56715
upperneck 0.474843 1.21366 8.55138
head 0.974772 0.724937 4.01543
rclavicle 3.16068e-014 -1.27222e-014
rhumerus -44.6117 15.5779 -94.9057
rradius 70.7853
rwrist 2.94511
rhand -6.96426 11.0369
rfingers 7.12502
rthumb 18.9052 -18.0644
lclavicle 3.16068e-014 -1.27222e-014
lhumerus -31.8054 6.78648 78.3422
lradius 41.5996
lwrist 180.923
lhand -19.778 7.73531
lfingers 7.12502
lthumb 6.55415 37.6139
rfemur -31.4077 2.20741 24.714
rtibia 55.2272
rfoot -20.7307 -3.40974
rtoes -9.09076
lfemur -0.107983 5.56128 -15.8272
ltibia 22.1873
lfoot -23.0802 -2.37452
ltoes -19.2454
24
root -24.1529 17.6988 -26.1197 176.643 132.23 -548.985
lowerback 2.69219 -1.45943 -1.07822
upperback 4.26202 -1.94061 1.3302
thorax 2.9553 -1.00829 1.97268
lowerneck -5.03687 0.864516 -6.54076
upperneck 0.348228 1.41437 8.50125
head 0.895818 0.821704 3.99288
rclavicle 3.83654e-014 7.95139e-016
rhumerus -44.5813 15.5901 -94.6659
rradius 71.2371
rwrist 3.35214
rhand -6.99552 11.528
rfingers 7.12502
rthumb 18.8751 -17.5762
lclavicle 3.83654e-014 7.95139e-016
lhumerus -31.8045 5.76988 78.756
lradius 42.5535
lwrist 181.811
lhand -19.9985 7.95617
lfingers 7.12502
lthumb 6.3413 37.8412
rfemur -32.3284 2.41024 24.6243
rtibia 56.0601
rfoot -20.9467 -3.33522
rtoes -8.61574
lfemur 0.374863 5.42829 -15.8268
ltibia 21.5988
lfoot -23.117 -2.1727
ltoes -19.2017
25
root -24.119 17.694 -26.0696 176.706 132.25 -548.938
lowerback 2.94237 -1.54835 -1.11925
upperback 4.28064 -2.05958 1.33853
thorax 2.84133 -1.06806 2.01101
lowerneck -4.92304 1.01438 -6.60405
upperneck 0.223975 1.62056 8.48414
head 0.817357 0.921504 3.99977
rclavicle 9.34288e-014 -2.46493e-014
rhumerus -44.5485 15.5794 -94.4048
rradius 71.6299
rwrist 3.67899
rhand -7.06674 11.9832
rfingers 7.12502
rthumb 18.8066 -17.1276
lclavicle 9.34288e-014 -2.46493e-014
lhumerus -31.8094 4.81837 79.2018
lradius 43.5084
lwrist 182.629
lhand -20.2065 8.25289
lfingers 7.12502
lthumb 6.14043 38.1439
rfemur -33.2562 2.59753 24.538
rtibia 56.8508
rfoot -21.1593 -3.2313
rtoes -8.67017
lfemur 0.845382 5.28832 -15.8393
ltibia 21.0428
lfoot -23.1606 -1.95501
ltoes -19.1462
26
root -24.0833 17.6883 -26.019 176.749 132.254 -548.896
lowerback 3.22583 -1.64149 -1.15462
upperback 4.29588 -2.18426 1.34549
thorax 2.70553 -1.13023 2.0467
lowerneck -4.83166 1.17101 -6.65922
upperneck 0.12385 1.83482 8.49352
head 0.749925 1.02642 4.01492
rclavicle 1.10127e-013 -7.95139e-016
rhumerus -44.5185 15.5265 -94.1313
rradius 71.9691
rwrist 3.93303
rhand -7.13556 12.3667
rfingers 7.12502
rthumb 18.7404 -16.7506
lclavicle 1.10127e-013 -7.95139e-016
lhumerus -31.7763 3.93951 79.6516
lradius 44.4029
lwrist 183.324
lhand -20.3939 8.5687
lfingers 7.12502
lthumb 5.95957 38.4649
rfemur -34.1872 2.73301 24.4665
rtibia 57.5992
rfoot -21.3592 -3.10203
rtoes -8.963
lfemur 1.32535 5.08179 -15.8558
ltibia 20.526
lfoot -23.2433 -1.72659
ltoes -18.942
27
root -24.0456 17.6814 -25.9666 176.733 132.266 -548.862
lowerback 3.56788 -1.72894 -1.20599
upperback 4.32268 -2.3018 1.36222
thorax 2.55009 -1.1892 2.10408
lowerneck -4.71972 1.31695 -6.6647
upperneck 0.00470737 2.03239 8.43078
head 0.674786 1.12163 3.9933
rclavicle 3.91606e-014 -1.51076e-014
rhumerus -44.4891 15.414 -93.8643
rradius 72.2275
rwrist 4.11368
rhand -7.22459 12.6527
rfingers 7.12502
rthumb 18.6548 -16.4728
lclavicle 3.91606e-014 -1.51076e-014
lhumerus -31.706 3.25771 80.1103
lradius 45.2236
lwrist 183.787
lhand -20.618 8.85435
lfingers 7.12502
lthumb 5.74313 38.7565
rfemur -35.0756 2.8642 24.421
rtibia 58.3047
rfoot -21.5596 -2.99311
rtoes -9.74637
lfemur 1.86801 4.86504 -15.8687
ltibia 20.0203
lfoot -23.3465 -1.47065
ltoes -18.7829
28
root -24.0062 17.6728 -25.915 176.752 132.272 -548.821
lowerback 3.88974 -1.82202 -1.27208
upperback 4.33621 -2.42771 1.39392
thorax 2.39453 -1.25292 2.18589
lowerneck -4.61824 1.48012 -6.71351
upperneck -0.0996881 2.2547 8.39502
head 0.603828 1.22986 3.99028
rclavicle 4.57205e-014 -1.27222e-014
rhumerus -44.5461 15.3354 -93.6001
rradius 72.4973
rwrist 4.19581
rhand -7.43146 12.8865
rfingers 7.12502
rthumb 18.4558 -16.258
lclavicle 4.57205e-014 -1.27222e-014
lhumerus -31.587 2.68821 80.5913
lradius 45.9625
lwrist 184.146
lhand -20.7606 9.14061
lfingers 7.12502
lthumb 5.60552 39.0465
rfemur -36.0169 2.98048 24.3712
rtibia 58.9609
rfoot -21.7466 -2.89966
rtoes -10.82
lfemur 2.39231 4.7133 -15.8859
ltibia 19.4862
lfoot -23.4114 -1.24489
ltoes -18.8437
29
root -23.9641 17.6648 -25.8617 176.775 132.279 -548.75
lowerback 4.22642 -1.90274 -1.34142
upperback 4.35994 -2.53709 1.39966
thorax 2.23997 -1.30793 2.24401
lowerneck -4.53047 1.62584 -6.6881
upperneck -0.203731 2.45053 8.33708
head 0.538694 1.32506 3.9642
rclavicle 7.21588e-014 -2.70347e-014
rhumerus -44.5954 15.1582 -93.3846
rradius 72.6775
rwrist 4.19863
rhand -7.71961 12.9599
rfingers 7.12502
rthumb 18.1786 -16.2107
lclavicle 7.21588e-014 -2.70347e-014
lhumerus -31.4317 2.03029 81.0769
lradius 46.7135
lwrist 184.508
lhand -20.8739 9.34238
lfingers 7.12502
lthumb 5.49611 39.2511
rfemur -36.9326 3.04931 24.2955
rtibia 59.5475
rfoot -21.9247 -2.77538
rtoes -11.886
lfemur 2.96064 4.50833 -15.9378
ltibia 18.9336
lfoot -23.4546 -0.990344
ltoes -18.6567
30
root -23.9203 17.6567 -25.8071 176.807 132.27 -548.672
lowerback 4.55911 -2.00125 -1.46123
upperback 4.38237 -2.6724 1.44262
thorax 2.09265 -1.37783 2.37017
lowerneck -4.4602 1.78627 -6.72717
upperneck -0.287928 2.66893 8.2827
head 0.480679 1.43195 3.9527
rclavicle 5.76476e-015 -1.59028e-014
rhumerus -44.717 15.0516 -93.1701
rradius 72.8236
rwrist 4.12989
rhand -8.12047 12.8718
rfingers 7.12502
rthumb 17.7929 -16.3342
lclavicle 5.76476e-015 -1.59028e-014
lhumerus -31.2844 1.37011 81.6251
lradius 47.525
lwrist 184.876
lhand -20.952 9.41114
lfingers 7.12502
lthumb 5.42069 39.3218
rfemur -37.853 3.09052 24.2115
rtibia 60.064
rfoot -22.0969 -2.73631
rtoes -12.8437
lfemur 3.54294 4.28264 -15.9982
ltibia 18.3466
lfoot -23.4694 -0.728923
ltoes -18.524
